solid 01_cube_20mm
 facet normal 0.00000000e+00 0.00000000e+00 1.00000000e+00
  outer loop
   vertex 0.00000000 0.00000000 0.00000000
   vertex 20.00000000 0.00000000 0.00000000
   vertex 20.00000000 20.00000000 0.00000000
  endloop
 endfacet
 facet normal 0.00000000e+00 0.00000000e+00 1.00000000e+00
  outer loop
   vertex 0.00000000 0.00000000 0.00000000
   vertex 20.00000000 20.00000000 0.00000000
   vertex 0.00000000 20.00000000 0.00000000
  endloop
 endfacet
 facet normal 0.00000000e+00 0.00000000e+00 -1.00000000e+00
  outer loop
   vertex 0.00000000 0.00000000 20.00000000
   vertex 20.00000000 20.00000000 20.00000000
   vertex 20.00000000 0.00000000 20.00000000
  endloop
 endfacet
 facet normal 0.00000000e+00 0.00000000e+00 -1.00000000e+00
  outer loop
   vertex 0.00000000 0.00000000 20.00000000
   vertex 0.00000000 20.00000000 20.00000000
   vertex 20.00000000 20.00000000 20.00000000
  endloop
 endfacet
 facet normal 0.00000000e+00 1.00000000e+00 0.00000000e+00
  outer loop
   vertex 0.00000000 0.00000000 0.00000000
   vertex 0.00000000 0.00000000 20.00000000
   vertex 20.00000000 0.00000000 20.00000000
  endloop
 endfacet
 facet normal 0.00000000e+00 1.00000000e+00 0.00000000e+00
  outer loop
   vertex 0.00000000 0.00000000 0.00000000
   vertex 20.00000000 0.00000000 20.00000000
   vertex 20.00000000 0.00000000 0.00000000
  endloop
 endfacet
 facet normal -1.00000000e+00 0.00000000e+00 0.00000000e+00
  outer loop
   vertex 20.00000000 0.00000000 0.00000000
   vertex 20.00000000 0.00000000 20.00000000
   vertex 20.00000000 20.00000000 20.00000000
  endloop
 endfacet
 facet normal -1.00000000e+00 0.00000000e+00 0.00000000e+00
  outer loop
   vertex 20.00000000 0.00000000 0.00000000
   vertex 20.00000000 20.00000000 20.00000000
   vertex 20.00000000 20.00000000 0.00000000
  endloop
 endfacet
 facet normal 0.00000000e+00 -1.00000000e+00 0.00000000e+00
  outer loop
   vertex 20.00000000 20.00000000 0.00000000
   vertex 20.00000000 20.00000000 20.00000000
   vertex 0.00000000 20.00000000 20.00000000
  endloop
 endfacet
 facet normal 0.00000000e+00 -1.00000000e+00 0.00000000e+00
  outer loop
   vertex 20.00000000 20.00000000 0.00000000
   vertex 0.00000000 20.00000000 20.00000000
   vertex 0.00000000 20.00000000 0.00000000
  endloop
 endfacet
 facet normal 1.00000000e+00 0.00000000e+00 0.00000000e+00
  outer loop
   vertex 0.00000000 20.00000000 0.00000000
   vertex 0.00000000 20.00000000 20.00000000
   vertex 0.00000000 0.00000000 20.00000000
  endloop
 endfacet
 facet normal 1.00000000e+00 0.00000000e+00 0.00000000e+00
  outer loop
   vertex 0.00000000 20.00000000 0.00000000
   vertex 0.00000000 0.00000000 20.00000000
   vertex 0.00000000 0.00000000 0.00000000
  endloop
 endfacet
endsolid 01_cube_20mm
