solid 02_cylinder_20x30mm
 facet normal 0.00000000e+00 0.00000000e+00 -1.00000000e+00
  outer loop
   vertex 0.00000000 0.00000000 0.00000000
   vertex 9.91444861 1.30526192 0.00000000
   vertex 10.00000000 0.00000000 0.00000000
  endloop
 endfacet
 facet normal 0.00000000e+00 0.00000000e+00 1.00000000e+00
  outer loop
   vertex 0.00000000 0.00000000 30.00000000
   vertex 10.00000000 0.00000000 30.00000000
   vertex 9.91444861 1.30526192 30.00000000
  endloop
 endfacet
 facet normal 9.97858923e-01 6.54031292e-02 0.00000000e+00
  outer loop
   vertex 10.00000000 0.00000000 0.00000000
   vertex 9.91444861 1.30526192 0.00000000
   vertex 9.91444861 1.30526192 30.00000000
  endloop
 endfacet
 facet normal 9.97858923e-01 6.54031292e-02 -0.00000000e+00
  outer loop
   vertex 10.00000000 0.00000000 0.00000000
   vertex 9.91444861 1.30526192 30.00000000
   vertex 10.00000000 0.00000000 30.00000000
  endloop
 endfacet
 facet normal 0.00000000e+00 0.00000000e+00 -1.00000000e+00
  outer loop
   vertex 0.00000000 0.00000000 0.00000000
   vertex 9.65925826 2.58819045 0.00000000
   vertex 9.91444861 1.30526192 0.00000000
  endloop
 endfacet
 facet normal 0.00000000e+00 0.00000000e+00 1.00000000e+00
  outer loop
   vertex 0.00000000 0.00000000 30.00000000
   vertex 9.91444861 1.30526192 30.00000000
   vertex 9.65925826 2.58819045 30.00000000
  endloop
 endfacet
 facet normal 9.80785280e-01 1.95090322e-01 0.00000000e+00
  outer loop
   vertex 9.91444861 1.30526192 0.00000000
   vertex 9.65925826 2.58819045 0.00000000
   vertex 9.65925826 2.58819045 30.00000000
  endloop
 endfacet
 facet normal 9.80785280e-01 1.95090322e-01 -0.00000000e+00
  outer loop
   vertex 9.91444861 1.30526192 0.00000000
   vertex 9.65925826 2.58819045 30.00000000
   vertex 9.91444861 1.30526192 30.00000000
  endloop
 endfacet
 facet normal 0.00000000e+00 0.00000000e+00 -1.00000000e+00
  outer loop
   vertex 0.00000000 0.00000000 0.00000000
   vertex 9.23879533 3.82683432 0.00000000
   vertex 9.65925826 2.58819045 0.00000000
  endloop
 endfacet
 facet normal 0.00000000e+00 0.00000000e+00 1.00000000e+00
  outer loop
   vertex 0.00000000 0.00000000 30.00000000
   vertex 9.65925826 2.58819045 30.00000000
   vertex 9.23879533 3.82683432 30.00000000
  endloop
 endfacet
 facet normal 9.46930129e-01 3.21439465e-01 0.00000000e+00
  outer loop
   vertex 9.65925826 2.58819045 0.00000000
   vertex 9.23879533 3.82683432 0.00000000
   vertex 9.23879533 3.82683432 30.00000000
  endloop
 endfacet
 facet normal 9.46930129e-01 3.21439465e-01 -0.00000000e+00
  outer loop
   vertex 9.65925826 2.58819045 0.00000000
   vertex 9.23879533 3.82683432 30.00000000
   vertex 9.65925826 2.58819045 30.00000000
  endloop
 endfacet
 facet normal 0.00000000e+00 0.00000000e+00 -1.00000000e+00
  outer loop
   vertex 0.00000000 0.00000000 0.00000000
   vertex 8.66025404 5.00000000 0.00000000
   vertex 9.23879533 3.82683432 0.00000000
  endloop
 endfacet
 facet normal 0.00000000e+00 0.00000000e+00 1.00000000e+00
  outer loop
   vertex 0.00000000 0.00000000 30.00000000
   vertex 9.23879533 3.82683432 30.00000000
   vertex 8.66025404 5.00000000 30.00000000
  endloop
 endfacet
 facet normal 8.96872742e-01 4.42288690e-01 0.00000000e+00
  outer loop
   vertex 9.23879533 3.82683432 0.00000000
   vertex 8.66025404 5.00000000 0.00000000
   vertex 8.66025404 5.00000000 30.00000000
  endloop
 endfacet
 facet normal 8.96872742e-01 4.42288690e-01 -0.00000000e+00
  outer loop
   vertex 9.23879533 3.82683432 0.00000000
   vertex 8.66025404 5.00000000 30.00000000
   vertex 9.23879533 3.82683432 30.00000000
  endloop
 endfacet
 facet normal 0.00000000e+00 0.00000000e+00 -1.00000000e+00
  outer loop
   vertex 0.00000000 0.00000000 0.00000000
   vertex 7.93353340 6.08761429 0.00000000
   vertex 8.66025404 5.00000000 0.00000000
  endloop
 endfacet
 facet normal 0.00000000e+00 0.00000000e+00 1.00000000e+00
  outer loop
   vertex 0.00000000 0.00000000 30.00000000
   vertex 8.66025404 5.00000000 30.00000000
   vertex 7.93353340 6.08761429 30.00000000
  endloop
 endfacet
 facet normal 8.31469612e-01 5.55570233e-01 0.00000000e+00
  outer loop
   vertex 8.66025404 5.00000000 0.00000000
   vertex 7.93353340 6.08761429 0.00000000
   vertex 7.93353340 6.08761429 30.00000000
  endloop
 endfacet
 facet normal 8.31469612e-01 5.55570233e-01 -0.00000000e+00
  outer loop
   vertex 8.66025404 5.00000000 0.00000000
   vertex 7.93353340 6.08761429 30.00000000
   vertex 8.66025404 5.00000000 30.00000000
  endloop
 endfacet
 facet normal 0.00000000e+00 0.00000000e+00 -1.00000000e+00
  outer loop
   vertex 0.00000000 0.00000000 0.00000000
   vertex 7.07106781 7.07106781 0.00000000
   vertex 7.93353340 6.08761429 0.00000000
  endloop
 endfacet
 facet normal 0.00000000e+00 0.00000000e+00 1.00000000e+00
  outer loop
   vertex 0.00000000 0.00000000 30.00000000
   vertex 7.93353340 6.08761429 30.00000000
   vertex 7.07106781 7.07106781 30.00000000
  endloop
 endfacet
 facet normal 7.51839807e-01 6.59345815e-01 0.00000000e+00
  outer loop
   vertex 7.93353340 6.08761429 0.00000000
   vertex 7.07106781 7.07106781 0.00000000
   vertex 7.07106781 7.07106781 30.00000000
  endloop
 endfacet
 facet normal 7.51839807e-01 6.59345815e-01 -0.00000000e+00
  outer loop
   vertex 7.93353340 6.08761429 0.00000000
   vertex 7.07106781 7.07106781 30.00000000
   vertex 7.93353340 6.08761429 30.00000000
  endloop
 endfacet
 facet normal 0.00000000e+00 0.00000000e+00 -1.00000000e+00
  outer loop
   vertex 0.00000000 0.00000000 0.00000000
   vertex 6.08761429 7.93353340 0.00000000
   vertex 7.07106781 7.07106781 0.00000000
  endloop
 endfacet
 facet normal 0.00000000e+00 0.00000000e+00 1.00000000e+00
  outer loop
   vertex 0.00000000 0.00000000 30.00000000
   vertex 7.07106781 7.07106781 30.00000000
   vertex 6.08761429 7.93353340 30.00000000
  endloop
 endfacet
 facet normal 6.59345815e-01 7.51839807e-01 0.00000000e+00
  outer loop
   vertex 7.07106781 7.07106781 0.00000000
   vertex 6.08761429 7.93353340 0.00000000
   vertex 6.08761429 7.93353340 30.00000000
  endloop
 endfacet
 facet normal 6.59345815e-01 7.51839807e-01 -0.00000000e+00
  outer loop
   vertex 7.07106781 7.07106781 0.00000000
   vertex 6.08761429 7.93353340 30.00000000
   vertex 7.07106781 7.07106781 30.00000000
  endloop
 endfacet
 facet normal 0.00000000e+00 0.00000000e+00 -1.00000000e+00
  outer loop
   vertex 0.00000000 0.00000000 0.00000000
   vertex 5.00000000 8.66025404 0.00000000
   vertex 6.08761429 7.93353340 0.00000000
  endloop
 endfacet
 facet normal 0.00000000e+00 0.00000000e+00 1.00000000e+00
  outer loop
   vertex 0.00000000 0.00000000 30.00000000
   vertex 6.08761429 7.93353340 30.00000000
   vertex 5.00000000 8.66025404 30.00000000
  endloop
 endfacet
 facet normal 5.55570233e-01 8.31469612e-01 0.00000000e+00
  outer loop
   vertex 6.08761429 7.93353340 0.00000000
   vertex 5.00000000 8.66025404 0.00000000
   vertex 5.00000000 8.66025404 30.00000000
  endloop
 endfacet
 facet normal 5.55570233e-01 8.31469612e-01 -0.00000000e+00
  outer loop
   vertex 6.08761429 7.93353340 0.00000000
   vertex 5.00000000 8.66025404 30.00000000
   vertex 6.08761429 7.93353340 30.00000000
  endloop
 endfacet
 facet normal 0.00000000e+00 0.00000000e+00 -1.00000000e+00
  outer loop
   vertex 0.00000000 0.00000000 0.00000000
   vertex 3.82683432 9.23879533 0.00000000
   vertex 5.00000000 8.66025404 0.00000000
  endloop
 endfacet
 facet normal 0.00000000e+00 0.00000000e+00 1.00000000e+00
  outer loop
   vertex 0.00000000 0.00000000 30.00000000
   vertex 5.00000000 8.66025404 30.00000000
   vertex 3.82683432 9.23879533 30.00000000
  endloop
 endfacet
 facet normal 4.42288690e-01 8.96872742e-01 0.00000000e+00
  outer loop
   vertex 5.00000000 8.66025404 0.00000000
   vertex 3.82683432 9.23879533 0.00000000
   vertex 3.82683432 9.23879533 30.00000000
  endloop
 endfacet
 facet normal 4.42288690e-01 8.96872742e-01 -0.00000000e+00
  outer loop
   vertex 5.00000000 8.66025404 0.00000000
   vertex 3.82683432 9.23879533 30.00000000
   vertex 5.00000000 8.66025404 30.00000000
  endloop
 endfacet
 facet normal 0.00000000e+00 0.00000000e+00 -1.00000000e+00
  outer loop
   vertex 0.00000000 0.00000000 0.00000000
   vertex 2.58819045 9.65925826 0.00000000
   vertex 3.82683432 9.23879533 0.00000000
  endloop
 endfacet
 facet normal 0.00000000e+00 0.00000000e+00 1.00000000e+00
  outer loop
   vertex 0.00000000 0.00000000 30.00000000
   vertex 3.82683432 9.23879533 30.00000000
   vertex 2.58819045 9.65925826 30.00000000
  endloop
 endfacet
 facet normal 3.21439465e-01 9.46930129e-01 0.00000000e+00
  outer loop
   vertex 3.82683432 9.23879533 0.00000000
   vertex 2.58819045 9.65925826 0.00000000
   vertex 2.58819045 9.65925826 30.00000000
  endloop
 endfacet
 facet normal 3.21439465e-01 9.46930129e-01 -0.00000000e+00
  outer loop
   vertex 3.82683432 9.23879533 0.00000000
   vertex 2.58819045 9.65925826 30.00000000
   vertex 3.82683432 9.23879533 30.00000000
  endloop
 endfacet
 facet normal 0.00000000e+00 0.00000000e+00 -1.00000000e+00
  outer loop
   vertex 0.00000000 0.00000000 0.00000000
   vertex 1.30526192 9.91444861 0.00000000
   vertex 2.58819045 9.65925826 0.00000000
  endloop
 endfacet
 facet normal 0.00000000e+00 0.00000000e+00 1.00000000e+00
  outer loop
   vertex 0.00000000 0.00000000 30.00000000
   vertex 2.58819045 9.65925826 30.00000000
   vertex 1.30526192 9.91444861 30.00000000
  endloop
 endfacet
 facet normal 1.95090322e-01 9.80785280e-01 0.00000000e+00
  outer loop
   vertex 2.58819045 9.65925826 0.00000000
   vertex 1.30526192 9.91444861 0.00000000
   vertex 1.30526192 9.91444861 30.00000000
  endloop
 endfacet
 facet normal 1.95090322e-01 9.80785280e-01 -0.00000000e+00
  outer loop
   vertex 2.58819045 9.65925826 0.00000000
   vertex 1.30526192 9.91444861 30.00000000
   vertex 2.58819045 9.65925826 30.00000000
  endloop
 endfacet
 facet normal 0.00000000e+00 0.00000000e+00 -1.00000000e+00
  outer loop
   vertex 0.00000000 0.00000000 0.00000000
   vertex 0.00000000 10.00000000 0.00000000
   vertex 1.30526192 9.91444861 0.00000000
  endloop
 endfacet
 facet normal 0.00000000e+00 0.00000000e+00 1.00000000e+00
  outer loop
   vertex 0.00000000 0.00000000 30.00000000
   vertex 1.30526192 9.91444861 30.00000000
   vertex 0.00000000 10.00000000 30.00000000
  endloop
 endfacet
 facet normal 6.54031292e-02 9.97858923e-01 0.00000000e+00
  outer loop
   vertex 1.30526192 9.91444861 0.00000000
   vertex 0.00000000 10.00000000 0.00000000
   vertex 0.00000000 10.00000000 30.00000000
  endloop
 endfacet
 facet normal 6.54031292e-02 9.97858923e-01 -0.00000000e+00
  outer loop
   vertex 1.30526192 9.91444861 0.00000000
   vertex 0.00000000 10.00000000 30.00000000
   vertex 1.30526192 9.91444861 30.00000000
  endloop
 endfacet
 facet normal 0.00000000e+00 0.00000000e+00 -1.00000000e+00
  outer loop
   vertex 0.00000000 0.00000000 0.00000000
   vertex -1.30526192 9.91444861 0.00000000
   vertex 0.00000000 10.00000000 0.00000000
  endloop
 endfacet
 facet normal 0.00000000e+00 -0.00000000e+00 1.00000000e+00
  outer loop
   vertex 0.00000000 0.00000000 30.00000000
   vertex 0.00000000 10.00000000 30.00000000
   vertex -1.30526192 9.91444861 30.00000000
  endloop
 endfacet
 facet normal -6.54031292e-02 9.97858923e-01 0.00000000e+00
  outer loop
   vertex 0.00000000 10.00000000 0.00000000
   vertex -1.30526192 9.91444861 0.00000000
   vertex -1.30526192 9.91444861 30.00000000
  endloop
 endfacet
 facet normal -6.54031292e-02 9.97858923e-01 0.00000000e+00
  outer loop
   vertex 0.00000000 10.00000000 0.00000000
   vertex -1.30526192 9.91444861 30.00000000
   vertex 0.00000000 10.00000000 30.00000000
  endloop
 endfacet
 facet normal 0.00000000e+00 0.00000000e+00 -1.00000000e+00
  outer loop
   vertex 0.00000000 0.00000000 0.00000000
   vertex -2.58819045 9.65925826 0.00000000
   vertex -1.30526192 9.91444861 0.00000000
  endloop
 endfacet
 facet normal 0.00000000e+00 0.00000000e+00 1.00000000e+00
  outer loop
   vertex 0.00000000 0.00000000 30.00000000
   vertex -1.30526192 9.91444861 30.00000000
   vertex -2.58819045 9.65925826 30.00000000
  endloop
 endfacet
 facet normal -1.95090322e-01 9.80785280e-01 0.00000000e+00
  outer loop
   vertex -1.30526192 9.91444861 0.00000000
   vertex -2.58819045 9.65925826 0.00000000
   vertex -2.58819045 9.65925826 30.00000000
  endloop
 endfacet
 facet normal -1.95090322e-01 9.80785280e-01 0.00000000e+00
  outer loop
   vertex -1.30526192 9.91444861 0.00000000
   vertex -2.58819045 9.65925826 30.00000000
   vertex -1.30526192 9.91444861 30.00000000
  endloop
 endfacet
 facet normal 0.00000000e+00 0.00000000e+00 -1.00000000e+00
  outer loop
   vertex 0.00000000 0.00000000 0.00000000
   vertex -3.82683432 9.23879533 0.00000000
   vertex -2.58819045 9.65925826 0.00000000
  endloop
 endfacet
 facet normal 0.00000000e+00 0.00000000e+00 1.00000000e+00
  outer loop
   vertex 0.00000000 0.00000000 30.00000000
   vertex -2.58819045 9.65925826 30.00000000
   vertex -3.82683432 9.23879533 30.00000000
  endloop
 endfacet
 facet normal -3.21439465e-01 9.46930129e-01 0.00000000e+00
  outer loop
   vertex -2.58819045 9.65925826 0.00000000
   vertex -3.82683432 9.23879533 0.00000000
   vertex -3.82683432 9.23879533 30.00000000
  endloop
 endfacet
 facet normal -3.21439465e-01 9.46930129e-01 0.00000000e+00
  outer loop
   vertex -2.58819045 9.65925826 0.00000000
   vertex -3.82683432 9.23879533 30.00000000
   vertex -2.58819045 9.65925826 30.00000000
  endloop
 endfacet
 facet normal 0.00000000e+00 0.00000000e+00 -1.00000000e+00
  outer loop
   vertex 0.00000000 0.00000000 0.00000000
   vertex -5.00000000 8.66025404 0.00000000
   vertex -3.82683432 9.23879533 0.00000000
  endloop
 endfacet
 facet normal 0.00000000e+00 0.00000000e+00 1.00000000e+00
  outer loop
   vertex 0.00000000 0.00000000 30.00000000
   vertex -3.82683432 9.23879533 30.00000000
   vertex -5.00000000 8.66025404 30.00000000
  endloop
 endfacet
 facet normal -4.42288690e-01 8.96872742e-01 0.00000000e+00
  outer loop
   vertex -3.82683432 9.23879533 0.00000000
   vertex -5.00000000 8.66025404 0.00000000
   vertex -5.00000000 8.66025404 30.00000000
  endloop
 endfacet
 facet normal -4.42288690e-01 8.96872742e-01 0.00000000e+00
  outer loop
   vertex -3.82683432 9.23879533 0.00000000
   vertex -5.00000000 8.66025404 30.00000000
   vertex -3.82683432 9.23879533 30.00000000
  endloop
 endfacet
 facet normal 0.00000000e+00 0.00000000e+00 -1.00000000e+00
  outer loop
   vertex 0.00000000 0.00000000 0.00000000
   vertex -6.08761429 7.93353340 0.00000000
   vertex -5.00000000 8.66025404 0.00000000
  endloop
 endfacet
 facet normal 0.00000000e+00 0.00000000e+00 1.00000000e+00
  outer loop
   vertex 0.00000000 0.00000000 30.00000000
   vertex -5.00000000 8.66025404 30.00000000
   vertex -6.08761429 7.93353340 30.00000000
  endloop
 endfacet
 facet normal -5.55570233e-01 8.31469612e-01 0.00000000e+00
  outer loop
   vertex -5.00000000 8.66025404 0.00000000
   vertex -6.08761429 7.93353340 0.00000000
   vertex -6.08761429 7.93353340 30.00000000
  endloop
 endfacet
 facet normal -5.55570233e-01 8.31469612e-01 0.00000000e+00
  outer loop
   vertex -5.00000000 8.66025404 0.00000000
   vertex -6.08761429 7.93353340 30.00000000
   vertex -5.00000000 8.66025404 30.00000000
  endloop
 endfacet
 facet normal 0.00000000e+00 0.00000000e+00 -1.00000000e+00
  outer loop
   vertex 0.00000000 0.00000000 0.00000000
   vertex -7.07106781 7.07106781 0.00000000
   vertex -6.08761429 7.93353340 0.00000000
  endloop
 endfacet
 facet normal 0.00000000e+00 0.00000000e+00 1.00000000e+00
  outer loop
   vertex 0.00000000 0.00000000 30.00000000
   vertex -6.08761429 7.93353340 30.00000000
   vertex -7.07106781 7.07106781 30.00000000
  endloop
 endfacet
 facet normal -6.59345815e-01 7.51839807e-01 0.00000000e+00
  outer loop
   vertex -6.08761429 7.93353340 0.00000000
   vertex -7.07106781 7.07106781 0.00000000
   vertex -7.07106781 7.07106781 30.00000000
  endloop
 endfacet
 facet normal -6.59345815e-01 7.51839807e-01 0.00000000e+00
  outer loop
   vertex -6.08761429 7.93353340 0.00000000
   vertex -7.07106781 7.07106781 30.00000000
   vertex -6.08761429 7.93353340 30.00000000
  endloop
 endfacet
 facet normal 0.00000000e+00 0.00000000e+00 -1.00000000e+00
  outer loop
   vertex 0.00000000 0.00000000 0.00000000
   vertex -7.93353340 6.08761429 0.00000000
   vertex -7.07106781 7.07106781 0.00000000
  endloop
 endfacet
 facet normal 0.00000000e+00 0.00000000e+00 1.00000000e+00
  outer loop
   vertex 0.00000000 0.00000000 30.00000000
   vertex -7.07106781 7.07106781 30.00000000
   vertex -7.93353340 6.08761429 30.00000000
  endloop
 endfacet
 facet normal -7.51839807e-01 6.59345815e-01 0.00000000e+00
  outer loop
   vertex -7.07106781 7.07106781 0.00000000
   vertex -7.93353340 6.08761429 0.00000000
   vertex -7.93353340 6.08761429 30.00000000
  endloop
 endfacet
 facet normal -7.51839807e-01 6.59345815e-01 0.00000000e+00
  outer loop
   vertex -7.07106781 7.07106781 0.00000000
   vertex -7.93353340 6.08761429 30.00000000
   vertex -7.07106781 7.07106781 30.00000000
  endloop
 endfacet
 facet normal 0.00000000e+00 0.00000000e+00 -1.00000000e+00
  outer loop
   vertex 0.00000000 0.00000000 0.00000000
   vertex -8.66025404 5.00000000 0.00000000
   vertex -7.93353340 6.08761429 0.00000000
  endloop
 endfacet
 facet normal 0.00000000e+00 0.00000000e+00 1.00000000e+00
  outer loop
   vertex 0.00000000 0.00000000 30.00000000
   vertex -7.93353340 6.08761429 30.00000000
   vertex -8.66025404 5.00000000 30.00000000
  endloop
 endfacet
 facet normal -8.31469612e-01 5.55570233e-01 0.00000000e+00
  outer loop
   vertex -7.93353340 6.08761429 0.00000000
   vertex -8.66025404 5.00000000 0.00000000
   vertex -8.66025404 5.00000000 30.00000000
  endloop
 endfacet
 facet normal -8.31469612e-01 5.55570233e-01 0.00000000e+00
  outer loop
   vertex -7.93353340 6.08761429 0.00000000
   vertex -8.66025404 5.00000000 30.00000000
   vertex -7.93353340 6.08761429 30.00000000
  endloop
 endfacet
 facet normal 0.00000000e+00 0.00000000e+00 -1.00000000e+00
  outer loop
   vertex 0.00000000 0.00000000 0.00000000
   vertex -9.23879533 3.82683432 0.00000000
   vertex -8.66025404 5.00000000 0.00000000
  endloop
 endfacet
 facet normal 0.00000000e+00 0.00000000e+00 1.00000000e+00
  outer loop
   vertex 0.00000000 0.00000000 30.00000000
   vertex -8.66025404 5.00000000 30.00000000
   vertex -9.23879533 3.82683432 30.00000000
  endloop
 endfacet
 facet normal -8.96872742e-01 4.42288690e-01 0.00000000e+00
  outer loop
   vertex -8.66025404 5.00000000 0.00000000
   vertex -9.23879533 3.82683432 0.00000000
   vertex -9.23879533 3.82683432 30.00000000
  endloop
 endfacet
 facet normal -8.96872742e-01 4.42288690e-01 0.00000000e+00
  outer loop
   vertex -8.66025404 5.00000000 0.00000000
   vertex -9.23879533 3.82683432 30.00000000
   vertex -8.66025404 5.00000000 30.00000000
  endloop
 endfacet
 facet normal 0.00000000e+00 0.00000000e+00 -1.00000000e+00
  outer loop
   vertex 0.00000000 0.00000000 0.00000000
   vertex -9.65925826 2.58819045 0.00000000
   vertex -9.23879533 3.82683432 0.00000000
  endloop
 endfacet
 facet normal 0.00000000e+00 0.00000000e+00 1.00000000e+00
  outer loop
   vertex 0.00000000 0.00000000 30.00000000
   vertex -9.23879533 3.82683432 30.00000000
   vertex -9.65925826 2.58819045 30.00000000
  endloop
 endfacet
 facet normal -9.46930129e-01 3.21439465e-01 0.00000000e+00
  outer loop
   vertex -9.23879533 3.82683432 0.00000000
   vertex -9.65925826 2.58819045 0.00000000
   vertex -9.65925826 2.58819045 30.00000000
  endloop
 endfacet
 facet normal -9.46930129e-01 3.21439465e-01 0.00000000e+00
  outer loop
   vertex -9.23879533 3.82683432 0.00000000
   vertex -9.65925826 2.58819045 30.00000000
   vertex -9.23879533 3.82683432 30.00000000
  endloop
 endfacet
 facet normal 0.00000000e+00 0.00000000e+00 -1.00000000e+00
  outer loop
   vertex 0.00000000 0.00000000 0.00000000
   vertex -9.91444861 1.30526192 0.00000000
   vertex -9.65925826 2.58819045 0.00000000
  endloop
 endfacet
 facet normal 0.00000000e+00 0.00000000e+00 1.00000000e+00
  outer loop
   vertex 0.00000000 0.00000000 30.00000000
   vertex -9.65925826 2.58819045 30.00000000
   vertex -9.91444861 1.30526192 30.00000000
  endloop
 endfacet
 facet normal -9.80785280e-01 1.95090322e-01 0.00000000e+00
  outer loop
   vertex -9.65925826 2.58819045 0.00000000
   vertex -9.91444861 1.30526192 0.00000000
   vertex -9.91444861 1.30526192 30.00000000
  endloop
 endfacet
 facet normal -9.80785280e-01 1.95090322e-01 0.00000000e+00
  outer loop
   vertex -9.65925826 2.58819045 0.00000000
   vertex -9.91444861 1.30526192 30.00000000
   vertex -9.65925826 2.58819045 30.00000000
  endloop
 endfacet
 facet normal 0.00000000e+00 0.00000000e+00 -1.00000000e+00
  outer loop
   vertex 0.00000000 0.00000000 0.00000000
   vertex -10.00000000 0.00000000 0.00000000
   vertex -9.91444861 1.30526192 0.00000000
  endloop
 endfacet
 facet normal 0.00000000e+00 0.00000000e+00 1.00000000e+00
  outer loop
   vertex 0.00000000 0.00000000 30.00000000
   vertex -9.91444861 1.30526192 30.00000000
   vertex -10.00000000 0.00000000 30.00000000
  endloop
 endfacet
 facet normal -9.97858923e-01 6.54031292e-02 0.00000000e+00
  outer loop
   vertex -9.91444861 1.30526192 0.00000000
   vertex -10.00000000 0.00000000 0.00000000
   vertex -10.00000000 0.00000000 30.00000000
  endloop
 endfacet
 facet normal -9.97858923e-01 6.54031292e-02 0.00000000e+00
  outer loop
   vertex -9.91444861 1.30526192 0.00000000
   vertex -10.00000000 0.00000000 30.00000000
   vertex -9.91444861 1.30526192 30.00000000
  endloop
 endfacet
 facet normal -0.00000000e+00 0.00000000e+00 -1.00000000e+00
  outer loop
   vertex 0.00000000 0.00000000 0.00000000
   vertex -9.91444861 -1.30526192 0.00000000
   vertex -10.00000000 0.00000000 0.00000000
  endloop
 endfacet
 facet normal 0.00000000e+00 0.00000000e+00 1.00000000e+00
  outer loop
   vertex 0.00000000 0.00000000 30.00000000
   vertex -10.00000000 0.00000000 30.00000000
   vertex -9.91444861 -1.30526192 30.00000000
  endloop
 endfacet
 facet normal -9.97858923e-01 -6.54031292e-02 0.00000000e+00
  outer loop
   vertex -10.00000000 0.00000000 0.00000000
   vertex -9.91444861 -1.30526192 0.00000000
   vertex -9.91444861 -1.30526192 30.00000000
  endloop
 endfacet
 facet normal -9.97858923e-01 -6.54031292e-02 0.00000000e+00
  outer loop
   vertex -10.00000000 0.00000000 0.00000000
   vertex -9.91444861 -1.30526192 30.00000000
   vertex -10.00000000 0.00000000 30.00000000
  endloop
 endfacet
 facet normal 0.00000000e+00 0.00000000e+00 -1.00000000e+00
  outer loop
   vertex 0.00000000 0.00000000 0.00000000
   vertex -9.65925826 -2.58819045 0.00000000
   vertex -9.91444861 -1.30526192 0.00000000
  endloop
 endfacet
 facet normal 0.00000000e+00 0.00000000e+00 1.00000000e+00
  outer loop
   vertex 0.00000000 0.00000000 30.00000000
   vertex -9.91444861 -1.30526192 30.00000000
   vertex -9.65925826 -2.58819045 30.00000000
  endloop
 endfacet
 facet normal -9.80785280e-01 -1.95090322e-01 0.00000000e+00
  outer loop
   vertex -9.91444861 -1.30526192 0.00000000
   vertex -9.65925826 -2.58819045 0.00000000
   vertex -9.65925826 -2.58819045 30.00000000
  endloop
 endfacet
 facet normal -9.80785280e-01 -1.95090322e-01 0.00000000e+00
  outer loop
   vertex -9.91444861 -1.30526192 0.00000000
   vertex -9.65925826 -2.58819045 30.00000000
   vertex -9.91444861 -1.30526192 30.00000000
  endloop
 endfacet
 facet normal 0.00000000e+00 0.00000000e+00 -1.00000000e+00
  outer loop
   vertex 0.00000000 0.00000000 0.00000000
   vertex -9.23879533 -3.82683432 0.00000000
   vertex -9.65925826 -2.58819045 0.00000000
  endloop
 endfacet
 facet normal 0.00000000e+00 0.00000000e+00 1.00000000e+00
  outer loop
   vertex 0.00000000 0.00000000 30.00000000
   vertex -9.65925826 -2.58819045 30.00000000
   vertex -9.23879533 -3.82683432 30.00000000
  endloop
 endfacet
 facet normal -9.46930129e-01 -3.21439465e-01 0.00000000e+00
  outer loop
   vertex -9.65925826 -2.58819045 0.00000000
   vertex -9.23879533 -3.82683432 0.00000000
   vertex -9.23879533 -3.82683432 30.00000000
  endloop
 endfacet
 facet normal -9.46930129e-01 -3.21439465e-01 0.00000000e+00
  outer loop
   vertex -9.65925826 -2.58819045 0.00000000
   vertex -9.23879533 -3.82683432 30.00000000
   vertex -9.65925826 -2.58819045 30.00000000
  endloop
 endfacet
 facet normal 0.00000000e+00 0.00000000e+00 -1.00000000e+00
  outer loop
   vertex 0.00000000 0.00000000 0.00000000
   vertex -8.66025404 -5.00000000 0.00000000
   vertex -9.23879533 -3.82683432 0.00000000
  endloop
 endfacet
 facet normal 0.00000000e+00 0.00000000e+00 1.00000000e+00
  outer loop
   vertex 0.00000000 0.00000000 30.00000000
   vertex -9.23879533 -3.82683432 30.00000000
   vertex -8.66025404 -5.00000000 30.00000000
  endloop
 endfacet
 facet normal -8.96872742e-01 -4.42288690e-01 0.00000000e+00
  outer loop
   vertex -9.23879533 -3.82683432 0.00000000
   vertex -8.66025404 -5.00000000 0.00000000
   vertex -8.66025404 -5.00000000 30.00000000
  endloop
 endfacet
 facet normal -8.96872742e-01 -4.42288690e-01 0.00000000e+00
  outer loop
   vertex -9.23879533 -3.82683432 0.00000000
   vertex -8.66025404 -5.00000000 30.00000000
   vertex -9.23879533 -3.82683432 30.00000000
  endloop
 endfacet
 facet normal 0.00000000e+00 0.00000000e+00 -1.00000000e+00
  outer loop
   vertex 0.00000000 0.00000000 0.00000000
   vertex -7.93353340 -6.08761429 0.00000000
   vertex -8.66025404 -5.00000000 0.00000000
  endloop
 endfacet
 facet normal 0.00000000e+00 0.00000000e+00 1.00000000e+00
  outer loop
   vertex 0.00000000 0.00000000 30.00000000
   vertex -8.66025404 -5.00000000 30.00000000
   vertex -7.93353340 -6.08761429 30.00000000
  endloop
 endfacet
 facet normal -8.31469612e-01 -5.55570233e-01 0.00000000e+00
  outer loop
   vertex -8.66025404 -5.00000000 0.00000000
   vertex -7.93353340 -6.08761429 0.00000000
   vertex -7.93353340 -6.08761429 30.00000000
  endloop
 endfacet
 facet normal -8.31469612e-01 -5.55570233e-01 0.00000000e+00
  outer loop
   vertex -8.66025404 -5.00000000 0.00000000
   vertex -7.93353340 -6.08761429 30.00000000
   vertex -8.66025404 -5.00000000 30.00000000
  endloop
 endfacet
 facet normal 0.00000000e+00 0.00000000e+00 -1.00000000e+00
  outer loop
   vertex 0.00000000 0.00000000 0.00000000
   vertex -7.07106781 -7.07106781 0.00000000
   vertex -7.93353340 -6.08761429 0.00000000
  endloop
 endfacet
 facet normal 0.00000000e+00 0.00000000e+00 1.00000000e+00
  outer loop
   vertex 0.00000000 0.00000000 30.00000000
   vertex -7.93353340 -6.08761429 30.00000000
   vertex -7.07106781 -7.07106781 30.00000000
  endloop
 endfacet
 facet normal -7.51839807e-01 -6.59345815e-01 0.00000000e+00
  outer loop
   vertex -7.93353340 -6.08761429 0.00000000
   vertex -7.07106781 -7.07106781 0.00000000
   vertex -7.07106781 -7.07106781 30.00000000
  endloop
 endfacet
 facet normal -7.51839807e-01 -6.59345815e-01 0.00000000e+00
  outer loop
   vertex -7.93353340 -6.08761429 0.00000000
   vertex -7.07106781 -7.07106781 30.00000000
   vertex -7.93353340 -6.08761429 30.00000000
  endloop
 endfacet
 facet normal 0.00000000e+00 0.00000000e+00 -1.00000000e+00
  outer loop
   vertex 0.00000000 0.00000000 0.00000000
   vertex -6.08761429 -7.93353340 0.00000000
   vertex -7.07106781 -7.07106781 0.00000000
  endloop
 endfacet
 facet normal 0.00000000e+00 0.00000000e+00 1.00000000e+00
  outer loop
   vertex 0.00000000 0.00000000 30.00000000
   vertex -7.07106781 -7.07106781 30.00000000
   vertex -6.08761429 -7.93353340 30.00000000
  endloop
 endfacet
 facet normal -6.59345815e-01 -7.51839807e-01 0.00000000e+00
  outer loop
   vertex -7.07106781 -7.07106781 0.00000000
   vertex -6.08761429 -7.93353340 0.00000000
   vertex -6.08761429 -7.93353340 30.00000000
  endloop
 endfacet
 facet normal -6.59345815e-01 -7.51839807e-01 0.00000000e+00
  outer loop
   vertex -7.07106781 -7.07106781 0.00000000
   vertex -6.08761429 -7.93353340 30.00000000
   vertex -7.07106781 -7.07106781 30.00000000
  endloop
 endfacet
 facet normal 0.00000000e+00 0.00000000e+00 -1.00000000e+00
  outer loop
   vertex 0.00000000 0.00000000 0.00000000
   vertex -5.00000000 -8.66025404 0.00000000
   vertex -6.08761429 -7.93353340 0.00000000
  endloop
 endfacet
 facet normal 0.00000000e+00 0.00000000e+00 1.00000000e+00
  outer loop
   vertex 0.00000000 0.00000000 30.00000000
   vertex -6.08761429 -7.93353340 30.00000000
   vertex -5.00000000 -8.66025404 30.00000000
  endloop
 endfacet
 facet normal -5.55570233e-01 -8.31469612e-01 0.00000000e+00
  outer loop
   vertex -6.08761429 -7.93353340 0.00000000
   vertex -5.00000000 -8.66025404 0.00000000
   vertex -5.00000000 -8.66025404 30.00000000
  endloop
 endfacet
 facet normal -5.55570233e-01 -8.31469612e-01 0.00000000e+00
  outer loop
   vertex -6.08761429 -7.93353340 0.00000000
   vertex -5.00000000 -8.66025404 30.00000000
   vertex -6.08761429 -7.93353340 30.00000000
  endloop
 endfacet
 facet normal 0.00000000e+00 0.00000000e+00 -1.00000000e+00
  outer loop
   vertex 0.00000000 0.00000000 0.00000000
   vertex -3.82683432 -9.23879533 0.00000000
   vertex -5.00000000 -8.66025404 0.00000000
  endloop
 endfacet
 facet normal 0.00000000e+00 0.00000000e+00 1.00000000e+00
  outer loop
   vertex 0.00000000 0.00000000 30.00000000
   vertex -5.00000000 -8.66025404 30.00000000
   vertex -3.82683432 -9.23879533 30.00000000
  endloop
 endfacet
 facet normal -4.42288690e-01 -8.96872742e-01 0.00000000e+00
  outer loop
   vertex -5.00000000 -8.66025404 0.00000000
   vertex -3.82683432 -9.23879533 0.00000000
   vertex -3.82683432 -9.23879533 30.00000000
  endloop
 endfacet
 facet normal -4.42288690e-01 -8.96872742e-01 0.00000000e+00
  outer loop
   vertex -5.00000000 -8.66025404 0.00000000
   vertex -3.82683432 -9.23879533 30.00000000
   vertex -5.00000000 -8.66025404 30.00000000
  endloop
 endfacet
 facet normal 0.00000000e+00 0.00000000e+00 -1.00000000e+00
  outer loop
   vertex 0.00000000 0.00000000 0.00000000
   vertex -2.58819045 -9.65925826 0.00000000
   vertex -3.82683432 -9.23879533 0.00000000
  endloop
 endfacet
 facet normal 0.00000000e+00 0.00000000e+00 1.00000000e+00
  outer loop
   vertex 0.00000000 0.00000000 30.00000000
   vertex -3.82683432 -9.23879533 30.00000000
   vertex -2.58819045 -9.65925826 30.00000000
  endloop
 endfacet
 facet normal -3.21439465e-01 -9.46930129e-01 0.00000000e+00
  outer loop
   vertex -3.82683432 -9.23879533 0.00000000
   vertex -2.58819045 -9.65925826 0.00000000
   vertex -2.58819045 -9.65925826 30.00000000
  endloop
 endfacet
 facet normal -3.21439465e-01 -9.46930129e-01 0.00000000e+00
  outer loop
   vertex -3.82683432 -9.23879533 0.00000000
   vertex -2.58819045 -9.65925826 30.00000000
   vertex -3.82683432 -9.23879533 30.00000000
  endloop
 endfacet
 facet normal 0.00000000e+00 0.00000000e+00 -1.00000000e+00
  outer loop
   vertex 0.00000000 0.00000000 0.00000000
   vertex -1.30526192 -9.91444861 0.00000000
   vertex -2.58819045 -9.65925826 0.00000000
  endloop
 endfacet
 facet normal 0.00000000e+00 0.00000000e+00 1.00000000e+00
  outer loop
   vertex 0.00000000 0.00000000 30.00000000
   vertex -2.58819045 -9.65925826 30.00000000
   vertex -1.30526192 -9.91444861 30.00000000
  endloop
 endfacet
 facet normal -1.95090322e-01 -9.80785280e-01 0.00000000e+00
  outer loop
   vertex -2.58819045 -9.65925826 0.00000000
   vertex -1.30526192 -9.91444861 0.00000000
   vertex -1.30526192 -9.91444861 30.00000000
  endloop
 endfacet
 facet normal -1.95090322e-01 -9.80785280e-01 0.00000000e+00
  outer loop
   vertex -2.58819045 -9.65925826 0.00000000
   vertex -1.30526192 -9.91444861 30.00000000
   vertex -2.58819045 -9.65925826 30.00000000
  endloop
 endfacet
 facet normal 0.00000000e+00 0.00000000e+00 -1.00000000e+00
  outer loop
   vertex 0.00000000 0.00000000 0.00000000
   vertex -0.00000000 -10.00000000 0.00000000
   vertex -1.30526192 -9.91444861 0.00000000
  endloop
 endfacet
 facet normal 0.00000000e+00 0.00000000e+00 1.00000000e+00
  outer loop
   vertex 0.00000000 0.00000000 30.00000000
   vertex -1.30526192 -9.91444861 30.00000000
   vertex -0.00000000 -10.00000000 30.00000000
  endloop
 endfacet
 facet normal -6.54031292e-02 -9.97858923e-01 0.00000000e+00
  outer loop
   vertex -1.30526192 -9.91444861 0.00000000
   vertex -0.00000000 -10.00000000 0.00000000
   vertex -0.00000000 -10.00000000 30.00000000
  endloop
 endfacet
 facet normal -6.54031292e-02 -9.97858923e-01 0.00000000e+00
  outer loop
   vertex -1.30526192 -9.91444861 0.00000000
   vertex -0.00000000 -10.00000000 30.00000000
   vertex -1.30526192 -9.91444861 30.00000000
  endloop
 endfacet
 facet normal 0.00000000e+00 -0.00000000e+00 -1.00000000e+00
  outer loop
   vertex 0.00000000 0.00000000 0.00000000
   vertex 1.30526192 -9.91444861 0.00000000
   vertex -0.00000000 -10.00000000 0.00000000
  endloop
 endfacet
 facet normal 0.00000000e+00 0.00000000e+00 1.00000000e+00
  outer loop
   vertex 0.00000000 0.00000000 30.00000000
   vertex -0.00000000 -10.00000000 30.00000000
   vertex 1.30526192 -9.91444861 30.00000000
  endloop
 endfacet
 facet normal 6.54031292e-02 -9.97858923e-01 0.00000000e+00
  outer loop
   vertex -0.00000000 -10.00000000 0.00000000
   vertex 1.30526192 -9.91444861 0.00000000
   vertex 1.30526192 -9.91444861 30.00000000
  endloop
 endfacet
 facet normal 6.54031292e-02 -9.97858923e-01 0.00000000e+00
  outer loop
   vertex -0.00000000 -10.00000000 0.00000000
   vertex 1.30526192 -9.91444861 30.00000000
   vertex -0.00000000 -10.00000000 30.00000000
  endloop
 endfacet
 facet normal 0.00000000e+00 0.00000000e+00 -1.00000000e+00
  outer loop
   vertex 0.00000000 0.00000000 0.00000000
   vertex 2.58819045 -9.65925826 0.00000000
   vertex 1.30526192 -9.91444861 0.00000000
  endloop
 endfacet
 facet normal 0.00000000e+00 0.00000000e+00 1.00000000e+00
  outer loop
   vertex 0.00000000 0.00000000 30.00000000
   vertex 1.30526192 -9.91444861 30.00000000
   vertex 2.58819045 -9.65925826 30.00000000
  endloop
 endfacet
 facet normal 1.95090322e-01 -9.80785280e-01 0.00000000e+00
  outer loop
   vertex 1.30526192 -9.91444861 0.00000000
   vertex 2.58819045 -9.65925826 0.00000000
   vertex 2.58819045 -9.65925826 30.00000000
  endloop
 endfacet
 facet normal 1.95090322e-01 -9.80785280e-01 0.00000000e+00
  outer loop
   vertex 1.30526192 -9.91444861 0.00000000
   vertex 2.58819045 -9.65925826 30.00000000
   vertex 1.30526192 -9.91444861 30.00000000
  endloop
 endfacet
 facet normal 0.00000000e+00 0.00000000e+00 -1.00000000e+00
  outer loop
   vertex 0.00000000 0.00000000 0.00000000
   vertex 3.82683432 -9.23879533 0.00000000
   vertex 2.58819045 -9.65925826 0.00000000
  endloop
 endfacet
 facet normal 0.00000000e+00 0.00000000e+00 1.00000000e+00
  outer loop
   vertex 0.00000000 0.00000000 30.00000000
   vertex 2.58819045 -9.65925826 30.00000000
   vertex 3.82683432 -9.23879533 30.00000000
  endloop
 endfacet
 facet normal 3.21439465e-01 -9.46930129e-01 0.00000000e+00
  outer loop
   vertex 2.58819045 -9.65925826 0.00000000
   vertex 3.82683432 -9.23879533 0.00000000
   vertex 3.82683432 -9.23879533 30.00000000
  endloop
 endfacet
 facet normal 3.21439465e-01 -9.46930129e-01 0.00000000e+00
  outer loop
   vertex 2.58819045 -9.65925826 0.00000000
   vertex 3.82683432 -9.23879533 30.00000000
   vertex 2.58819045 -9.65925826 30.00000000
  endloop
 endfacet
 facet normal 0.00000000e+00 0.00000000e+00 -1.00000000e+00
  outer loop
   vertex 0.00000000 0.00000000 0.00000000
   vertex 5.00000000 -8.66025404 0.00000000
   vertex 3.82683432 -9.23879533 0.00000000
  endloop
 endfacet
 facet normal 0.00000000e+00 0.00000000e+00 1.00000000e+00
  outer loop
   vertex 0.00000000 0.00000000 30.00000000
   vertex 3.82683432 -9.23879533 30.00000000
   vertex 5.00000000 -8.66025404 30.00000000
  endloop
 endfacet
 facet normal 4.42288690e-01 -8.96872742e-01 0.00000000e+00
  outer loop
   vertex 3.82683432 -9.23879533 0.00000000
   vertex 5.00000000 -8.66025404 0.00000000
   vertex 5.00000000 -8.66025404 30.00000000
  endloop
 endfacet
 facet normal 4.42288690e-01 -8.96872742e-01 0.00000000e+00
  outer loop
   vertex 3.82683432 -9.23879533 0.00000000
   vertex 5.00000000 -8.66025404 30.00000000
   vertex 3.82683432 -9.23879533 30.00000000
  endloop
 endfacet
 facet normal 0.00000000e+00 0.00000000e+00 -1.00000000e+00
  outer loop
   vertex 0.00000000 0.00000000 0.00000000
   vertex 6.08761429 -7.93353340 0.00000000
   vertex 5.00000000 -8.66025404 0.00000000
  endloop
 endfacet
 facet normal 0.00000000e+00 0.00000000e+00 1.00000000e+00
  outer loop
   vertex 0.00000000 0.00000000 30.00000000
   vertex 5.00000000 -8.66025404 30.00000000
   vertex 6.08761429 -7.93353340 30.00000000
  endloop
 endfacet
 facet normal 5.55570233e-01 -8.31469612e-01 0.00000000e+00
  outer loop
   vertex 5.00000000 -8.66025404 0.00000000
   vertex 6.08761429 -7.93353340 0.00000000
   vertex 6.08761429 -7.93353340 30.00000000
  endloop
 endfacet
 facet normal 5.55570233e-01 -8.31469612e-01 0.00000000e+00
  outer loop
   vertex 5.00000000 -8.66025404 0.00000000
   vertex 6.08761429 -7.93353340 30.00000000
   vertex 5.00000000 -8.66025404 30.00000000
  endloop
 endfacet
 facet normal 0.00000000e+00 0.00000000e+00 -1.00000000e+00
  outer loop
   vertex 0.00000000 0.00000000 0.00000000
   vertex 7.07106781 -7.07106781 0.00000000
   vertex 6.08761429 -7.93353340 0.00000000
  endloop
 endfacet
 facet normal 0.00000000e+00 0.00000000e+00 1.00000000e+00
  outer loop
   vertex 0.00000000 0.00000000 30.00000000
   vertex 6.08761429 -7.93353340 30.00000000
   vertex 7.07106781 -7.07106781 30.00000000
  endloop
 endfacet
 facet normal 6.59345815e-01 -7.51839807e-01 0.00000000e+00
  outer loop
   vertex 6.08761429 -7.93353340 0.00000000
   vertex 7.07106781 -7.07106781 0.00000000
   vertex 7.07106781 -7.07106781 30.00000000
  endloop
 endfacet
 facet normal 6.59345815e-01 -7.51839807e-01 0.00000000e+00
  outer loop
   vertex 6.08761429 -7.93353340 0.00000000
   vertex 7.07106781 -7.07106781 30.00000000
   vertex 6.08761429 -7.93353340 30.00000000
  endloop
 endfacet
 facet normal 0.00000000e+00 0.00000000e+00 -1.00000000e+00
  outer loop
   vertex 0.00000000 0.00000000 0.00000000
   vertex 7.93353340 -6.08761429 0.00000000
   vertex 7.07106781 -7.07106781 0.00000000
  endloop
 endfacet
 facet normal 0.00000000e+00 0.00000000e+00 1.00000000e+00
  outer loop
   vertex 0.00000000 0.00000000 30.00000000
   vertex 7.07106781 -7.07106781 30.00000000
   vertex 7.93353340 -6.08761429 30.00000000
  endloop
 endfacet
 facet normal 7.51839807e-01 -6.59345815e-01 0.00000000e+00
  outer loop
   vertex 7.07106781 -7.07106781 0.00000000
   vertex 7.93353340 -6.08761429 0.00000000
   vertex 7.93353340 -6.08761429 30.00000000
  endloop
 endfacet
 facet normal 7.51839807e-01 -6.59345815e-01 0.00000000e+00
  outer loop
   vertex 7.07106781 -7.07106781 0.00000000
   vertex 7.93353340 -6.08761429 30.00000000
   vertex 7.07106781 -7.07106781 30.00000000
  endloop
 endfacet
 facet normal 0.00000000e+00 0.00000000e+00 -1.00000000e+00
  outer loop
   vertex 0.00000000 0.00000000 0.00000000
   vertex 8.66025404 -5.00000000 0.00000000
   vertex 7.93353340 -6.08761429 0.00000000
  endloop
 endfacet
 facet normal 0.00000000e+00 0.00000000e+00 1.00000000e+00
  outer loop
   vertex 0.00000000 0.00000000 30.00000000
   vertex 7.93353340 -6.08761429 30.00000000
   vertex 8.66025404 -5.00000000 30.00000000
  endloop
 endfacet
 facet normal 8.31469612e-01 -5.55570233e-01 0.00000000e+00
  outer loop
   vertex 7.93353340 -6.08761429 0.00000000
   vertex 8.66025404 -5.00000000 0.00000000
   vertex 8.66025404 -5.00000000 30.00000000
  endloop
 endfacet
 facet normal 8.31469612e-01 -5.55570233e-01 0.00000000e+00
  outer loop
   vertex 7.93353340 -6.08761429 0.00000000
   vertex 8.66025404 -5.00000000 30.00000000
   vertex 7.93353340 -6.08761429 30.00000000
  endloop
 endfacet
 facet normal 0.00000000e+00 0.00000000e+00 -1.00000000e+00
  outer loop
   vertex 0.00000000 0.00000000 0.00000000
   vertex 9.23879533 -3.82683432 0.00000000
   vertex 8.66025404 -5.00000000 0.00000000
  endloop
 endfacet
 facet normal 0.00000000e+00 0.00000000e+00 1.00000000e+00
  outer loop
   vertex 0.00000000 0.00000000 30.00000000
   vertex 8.66025404 -5.00000000 30.00000000
   vertex 9.23879533 -3.82683432 30.00000000
  endloop
 endfacet
 facet normal 8.96872742e-01 -4.42288690e-01 0.00000000e+00
  outer loop
   vertex 8.66025404 -5.00000000 0.00000000
   vertex 9.23879533 -3.82683432 0.00000000
   vertex 9.23879533 -3.82683432 30.00000000
  endloop
 endfacet
 facet normal 8.96872742e-01 -4.42288690e-01 0.00000000e+00
  outer loop
   vertex 8.66025404 -5.00000000 0.00000000
   vertex 9.23879533 -3.82683432 30.00000000
   vertex 8.66025404 -5.00000000 30.00000000
  endloop
 endfacet
 facet normal 0.00000000e+00 0.00000000e+00 -1.00000000e+00
  outer loop
   vertex 0.00000000 0.00000000 0.00000000
   vertex 9.65925826 -2.58819045 0.00000000
   vertex 9.23879533 -3.82683432 0.00000000
  endloop
 endfacet
 facet normal 0.00000000e+00 0.00000000e+00 1.00000000e+00
  outer loop
   vertex 0.00000000 0.00000000 30.00000000
   vertex 9.23879533 -3.82683432 30.00000000
   vertex 9.65925826 -2.58819045 30.00000000
  endloop
 endfacet
 facet normal 9.46930129e-01 -3.21439465e-01 0.00000000e+00
  outer loop
   vertex 9.23879533 -3.82683432 0.00000000
   vertex 9.65925826 -2.58819045 0.00000000
   vertex 9.65925826 -2.58819045 30.00000000
  endloop
 endfacet
 facet normal 9.46930129e-01 -3.21439465e-01 0.00000000e+00
  outer loop
   vertex 9.23879533 -3.82683432 0.00000000
   vertex 9.65925826 -2.58819045 30.00000000
   vertex 9.23879533 -3.82683432 30.00000000
  endloop
 endfacet
 facet normal 0.00000000e+00 0.00000000e+00 -1.00000000e+00
  outer loop
   vertex 0.00000000 0.00000000 0.00000000
   vertex 9.91444861 -1.30526192 0.00000000
   vertex 9.65925826 -2.58819045 0.00000000
  endloop
 endfacet
 facet normal 0.00000000e+00 0.00000000e+00 1.00000000e+00
  outer loop
   vertex 0.00000000 0.00000000 30.00000000
   vertex 9.65925826 -2.58819045 30.00000000
   vertex 9.91444861 -1.30526192 30.00000000
  endloop
 endfacet
 facet normal 9.80785280e-01 -1.95090322e-01 0.00000000e+00
  outer loop
   vertex 9.65925826 -2.58819045 0.00000000
   vertex 9.91444861 -1.30526192 0.00000000
   vertex 9.91444861 -1.30526192 30.00000000
  endloop
 endfacet
 facet normal 9.80785280e-01 -1.95090322e-01 0.00000000e+00
  outer loop
   vertex 9.65925826 -2.58819045 0.00000000
   vertex 9.91444861 -1.30526192 30.00000000
   vertex 9.65925826 -2.58819045 30.00000000
  endloop
 endfacet
 facet normal 0.00000000e+00 0.00000000e+00 -1.00000000e+00
  outer loop
   vertex 0.00000000 0.00000000 0.00000000
   vertex 10.00000000 0.00000000 0.00000000
   vertex 9.91444861 -1.30526192 0.00000000
  endloop
 endfacet
 facet normal -0.00000000e+00 0.00000000e+00 1.00000000e+00
  outer loop
   vertex 0.00000000 0.00000000 30.00000000
   vertex 9.91444861 -1.30526192 30.00000000
   vertex 10.00000000 0.00000000 30.00000000
  endloop
 endfacet
 facet normal 9.97858923e-01 -6.54031292e-02 0.00000000e+00
  outer loop
   vertex 9.91444861 -1.30526192 0.00000000
   vertex 10.00000000 0.00000000 0.00000000
   vertex 10.00000000 0.00000000 30.00000000
  endloop
 endfacet
 facet normal 9.97858923e-01 -6.54031292e-02 0.00000000e+00
  outer loop
   vertex 9.91444861 -1.30526192 0.00000000
   vertex 10.00000000 0.00000000 30.00000000
   vertex 9.91444861 -1.30526192 30.00000000
  endloop
 endfacet
endsolid 02_cylinder_20x30mm
