solid 03_cone_30x30mm
 facet normal 0.00000000e+00 0.00000000e+00 -1.00000000e+00
  outer loop
   vertex 0.00000000 0.00000000 0.00000000
   vertex 14.87167292 1.95789288 0.00000000
   vertex 15.00000000 0.00000000 0.00000000
  endloop
 endfacet
 facet normal 8.92894177e-01 5.85233763e-02 4.46447089e-01
  outer loop
   vertex 15.00000000 0.00000000 0.00000000
   vertex 14.87167292 1.95789288 0.00000000
   vertex 0.00000000 0.00000000 30.00000000
  endloop
 endfacet
 facet normal 0.00000000e+00 0.00000000e+00 -1.00000000e+00
  outer loop
   vertex 0.00000000 0.00000000 0.00000000
   vertex 14.48888739 3.88228568 0.00000000
   vertex 14.87167292 1.95789288 0.00000000
  endloop
 endfacet
 facet normal 8.77616510e-01 1.74568778e-01 4.46447089e-01
  outer loop
   vertex 14.87167292 1.95789288 0.00000000
   vertex 14.48888739 3.88228568 0.00000000
   vertex 0.00000000 0.00000000 30.00000000
  endloop
 endfacet
 facet normal 0.00000000e+00 0.00000000e+00 -1.00000000e+00
  outer loop
   vertex 0.00000000 0.00000000 0.00000000
   vertex 13.85819299 5.74025149 0.00000000
   vertex 14.48888739 3.88228568 0.00000000
  endloop
 endfacet
 facet normal 8.47322581e-01 2.87627259e-01 4.46447089e-01
  outer loop
   vertex 14.48888739 3.88228568 0.00000000
   vertex 13.85819299 5.74025149 0.00000000
   vertex 0.00000000 0.00000000 30.00000000
  endloop
 endfacet
 facet normal 0.00000000e+00 0.00000000e+00 -1.00000000e+00
  outer loop
   vertex 0.00000000 0.00000000 0.00000000
   vertex 12.99038106 7.50000000 0.00000000
   vertex 13.85819299 5.74025149 0.00000000
  endloop
 endfacet
 facet normal 8.02530728e-01 3.95764358e-01 4.46447089e-01
  outer loop
   vertex 13.85819299 5.74025149 0.00000000
   vertex 12.99038106 7.50000000 0.00000000
   vertex 0.00000000 0.00000000 30.00000000
  endloop
 endfacet
 facet normal 0.00000000e+00 0.00000000e+00 -1.00000000e+00
  outer loop
   vertex 0.00000000 0.00000000 0.00000000
   vertex 11.90030010 9.13142144 0.00000000
   vertex 12.99038106 7.50000000 0.00000000
  endloop
 endfacet
 facet normal 7.44007352e-01 4.97129819e-01 4.46447089e-01
  outer loop
   vertex 12.99038106 7.50000000 0.00000000
   vertex 11.90030010 9.13142144 0.00000000
   vertex 0.00000000 0.00000000 30.00000000
  endloop
 endfacet
 facet normal 0.00000000e+00 0.00000000e+00 -1.00000000e+00
  outer loop
   vertex 0.00000000 0.00000000 0.00000000
   vertex 10.60660172 10.60660172 0.00000000
   vertex 11.90030010 9.13142144 0.00000000
  endloop
 endfacet
 facet normal 6.72753804e-01 5.89989251e-01 4.46447089e-01
  outer loop
   vertex 11.90030010 9.13142144 0.00000000
   vertex 10.60660172 10.60660172 0.00000000
   vertex 0.00000000 0.00000000 30.00000000
  endloop
 endfacet
 facet normal 0.00000000e+00 0.00000000e+00 -1.00000000e+00
  outer loop
   vertex 0.00000000 0.00000000 0.00000000
   vertex 9.13142144 11.90030010 0.00000000
   vertex 10.60660172 10.60660172 0.00000000
  endloop
 endfacet
 facet normal 5.89989251e-01 6.72753804e-01 4.46447089e-01
  outer loop
   vertex 10.60660172 10.60660172 0.00000000
   vertex 9.13142144 11.90030010 0.00000000
   vertex 0.00000000 0.00000000 30.00000000
  endloop
 endfacet
 facet normal 0.00000000e+00 0.00000000e+00 -1.00000000e+00
  outer loop
   vertex 0.00000000 0.00000000 0.00000000
   vertex 7.50000000 12.99038106 0.00000000
   vertex 9.13142144 11.90030010 0.00000000
  endloop
 endfacet
 facet normal 4.97129819e-01 7.44007352e-01 4.46447089e-01
  outer loop
   vertex 9.13142144 11.90030010 0.00000000
   vertex 7.50000000 12.99038106 0.00000000
   vertex 0.00000000 0.00000000 30.00000000
  endloop
 endfacet
 facet normal 0.00000000e+00 0.00000000e+00 -1.00000000e+00
  outer loop
   vertex 0.00000000 0.00000000 0.00000000
   vertex 5.74025149 13.85819299 0.00000000
   vertex 7.50000000 12.99038106 0.00000000
  endloop
 endfacet
 facet normal 3.95764358e-01 8.02530728e-01 4.46447089e-01
  outer loop
   vertex 7.50000000 12.99038106 0.00000000
   vertex 5.74025149 13.85819299 0.00000000
   vertex 0.00000000 0.00000000 30.00000000
  endloop
 endfacet
 facet normal 0.00000000e+00 0.00000000e+00 -1.00000000e+00
  outer loop
   vertex 0.00000000 0.00000000 0.00000000
   vertex 3.88228568 14.48888739 0.00000000
   vertex 5.74025149 13.85819299 0.00000000
  endloop
 endfacet
 facet normal 2.87627259e-01 8.47322581e-01 4.46447089e-01
  outer loop
   vertex 5.74025149 13.85819299 0.00000000
   vertex 3.88228568 14.48888739 0.00000000
   vertex 0.00000000 0.00000000 30.00000000
  endloop
 endfacet
 facet normal 0.00000000e+00 0.00000000e+00 -1.00000000e+00
  outer loop
   vertex 0.00000000 0.00000000 0.00000000
   vertex 1.95789288 14.87167292 0.00000000
   vertex 3.88228568 14.48888739 0.00000000
  endloop
 endfacet
 facet normal 1.74568778e-01 8.77616510e-01 4.46447089e-01
  outer loop
   vertex 3.88228568 14.48888739 0.00000000
   vertex 1.95789288 14.87167292 0.00000000
   vertex 0.00000000 0.00000000 30.00000000
  endloop
 endfacet
 facet normal 0.00000000e+00 0.00000000e+00 -1.00000000e+00
  outer loop
   vertex 0.00000000 0.00000000 0.00000000
   vertex 0.00000000 15.00000000 0.00000000
   vertex 1.95789288 14.87167292 0.00000000
  endloop
 endfacet
 facet normal 5.85233763e-02 8.92894177e-01 4.46447089e-01
  outer loop
   vertex 1.95789288 14.87167292 0.00000000
   vertex 0.00000000 15.00000000 0.00000000
   vertex 0.00000000 0.00000000 30.00000000
  endloop
 endfacet
 facet normal 0.00000000e+00 0.00000000e+00 -1.00000000e+00
  outer loop
   vertex 0.00000000 0.00000000 0.00000000
   vertex -1.95789288 14.87167292 0.00000000
   vertex 0.00000000 15.00000000 0.00000000
  endloop
 endfacet
 facet normal -5.85233763e-02 8.92894177e-01 4.46447089e-01
  outer loop
   vertex 0.00000000 15.00000000 0.00000000
   vertex -1.95789288 14.87167292 0.00000000
   vertex 0.00000000 0.00000000 30.00000000
  endloop
 endfacet
 facet normal 0.00000000e+00 0.00000000e+00 -1.00000000e+00
  outer loop
   vertex 0.00000000 0.00000000 0.00000000
   vertex -3.88228568 14.48888739 0.00000000
   vertex -1.95789288 14.87167292 0.00000000
  endloop
 endfacet
 facet normal -1.74568778e-01 8.77616510e-01 4.46447089e-01
  outer loop
   vertex -1.95789288 14.87167292 0.00000000
   vertex -3.88228568 14.48888739 0.00000000
   vertex 0.00000000 0.00000000 30.00000000
  endloop
 endfacet
 facet normal 0.00000000e+00 0.00000000e+00 -1.00000000e+00
  outer loop
   vertex 0.00000000 0.00000000 0.00000000
   vertex -5.74025149 13.85819299 0.00000000
   vertex -3.88228568 14.48888739 0.00000000
  endloop
 endfacet
 facet normal -2.87627259e-01 8.47322581e-01 4.46447089e-01
  outer loop
   vertex -3.88228568 14.48888739 0.00000000
   vertex -5.74025149 13.85819299 0.00000000
   vertex 0.00000000 0.00000000 30.00000000
  endloop
 endfacet
 facet normal 0.00000000e+00 0.00000000e+00 -1.00000000e+00
  outer loop
   vertex 0.00000000 0.00000000 0.00000000
   vertex -7.50000000 12.99038106 0.00000000
   vertex -5.74025149 13.85819299 0.00000000
  endloop
 endfacet
 facet normal -3.95764358e-01 8.02530728e-01 4.46447089e-01
  outer loop
   vertex -5.74025149 13.85819299 0.00000000
   vertex -7.50000000 12.99038106 0.00000000
   vertex 0.00000000 0.00000000 30.00000000
  endloop
 endfacet
 facet normal 0.00000000e+00 0.00000000e+00 -1.00000000e+00
  outer loop
   vertex 0.00000000 0.00000000 0.00000000
   vertex -9.13142144 11.90030010 0.00000000
   vertex -7.50000000 12.99038106 0.00000000
  endloop
 endfacet
 facet normal -4.97129819e-01 7.44007352e-01 4.46447089e-01
  outer loop
   vertex -7.50000000 12.99038106 0.00000000
   vertex -9.13142144 11.90030010 0.00000000
   vertex 0.00000000 0.00000000 30.00000000
  endloop
 endfacet
 facet normal 0.00000000e+00 0.00000000e+00 -1.00000000e+00
  outer loop
   vertex 0.00000000 0.00000000 0.00000000
   vertex -10.60660172 10.60660172 0.00000000
   vertex -9.13142144 11.90030010 0.00000000
  endloop
 endfacet
 facet normal -5.89989251e-01 6.72753804e-01 4.46447089e-01
  outer loop
   vertex -9.13142144 11.90030010 0.00000000
   vertex -10.60660172 10.60660172 0.00000000
   vertex 0.00000000 0.00000000 30.00000000
  endloop
 endfacet
 facet normal 0.00000000e+00 0.00000000e+00 -1.00000000e+00
  outer loop
   vertex 0.00000000 0.00000000 0.00000000
   vertex -11.90030010 9.13142144 0.00000000
   vertex -10.60660172 10.60660172 0.00000000
  endloop
 endfacet
 facet normal -6.72753804e-01 5.89989251e-01 4.46447089e-01
  outer loop
   vertex -10.60660172 10.60660172 0.00000000
   vertex -11.90030010 9.13142144 0.00000000
   vertex 0.00000000 0.00000000 30.00000000
  endloop
 endfacet
 facet normal 0.00000000e+00 0.00000000e+00 -1.00000000e+00
  outer loop
   vertex 0.00000000 0.00000000 0.00000000
   vertex -12.99038106 7.50000000 0.00000000
   vertex -11.90030010 9.13142144 0.00000000
  endloop
 endfacet
 facet normal -7.44007352e-01 4.97129819e-01 4.46447089e-01
  outer loop
   vertex -11.90030010 9.13142144 0.00000000
   vertex -12.99038106 7.50000000 0.00000000
   vertex 0.00000000 0.00000000 30.00000000
  endloop
 endfacet
 facet normal 0.00000000e+00 0.00000000e+00 -1.00000000e+00
  outer loop
   vertex 0.00000000 0.00000000 0.00000000
   vertex -13.85819299 5.74025149 0.00000000
   vertex -12.99038106 7.50000000 0.00000000
  endloop
 endfacet
 facet normal -8.02530728e-01 3.95764358e-01 4.46447089e-01
  outer loop
   vertex -12.99038106 7.50000000 0.00000000
   vertex -13.85819299 5.74025149 0.00000000
   vertex 0.00000000 0.00000000 30.00000000
  endloop
 endfacet
 facet normal 0.00000000e+00 0.00000000e+00 -1.00000000e+00
  outer loop
   vertex 0.00000000 0.00000000 0.00000000
   vertex -14.48888739 3.88228568 0.00000000
   vertex -13.85819299 5.74025149 0.00000000
  endloop
 endfacet
 facet normal -8.47322581e-01 2.87627259e-01 4.46447089e-01
  outer loop
   vertex -13.85819299 5.74025149 0.00000000
   vertex -14.48888739 3.88228568 0.00000000
   vertex 0.00000000 0.00000000 30.00000000
  endloop
 endfacet
 facet normal 0.00000000e+00 0.00000000e+00 -1.00000000e+00
  outer loop
   vertex 0.00000000 0.00000000 0.00000000
   vertex -14.87167292 1.95789288 0.00000000
   vertex -14.48888739 3.88228568 0.00000000
  endloop
 endfacet
 facet normal -8.77616510e-01 1.74568778e-01 4.46447089e-01
  outer loop
   vertex -14.48888739 3.88228568 0.00000000
   vertex -14.87167292 1.95789288 0.00000000
   vertex 0.00000000 0.00000000 30.00000000
  endloop
 endfacet
 facet normal 0.00000000e+00 0.00000000e+00 -1.00000000e+00
  outer loop
   vertex 0.00000000 0.00000000 0.00000000
   vertex -15.00000000 0.00000000 0.00000000
   vertex -14.87167292 1.95789288 0.00000000
  endloop
 endfacet
 facet normal -8.92894177e-01 5.85233763e-02 4.46447089e-01
  outer loop
   vertex -14.87167292 1.95789288 0.00000000
   vertex -15.00000000 0.00000000 0.00000000
   vertex 0.00000000 0.00000000 30.00000000
  endloop
 endfacet
 facet normal -0.00000000e+00 0.00000000e+00 -1.00000000e+00
  outer loop
   vertex 0.00000000 0.00000000 0.00000000
   vertex -14.87167292 -1.95789288 0.00000000
   vertex -15.00000000 0.00000000 0.00000000
  endloop
 endfacet
 facet normal -8.92894177e-01 -5.85233763e-02 4.46447089e-01
  outer loop
   vertex -15.00000000 0.00000000 0.00000000
   vertex -14.87167292 -1.95789288 0.00000000
   vertex 0.00000000 0.00000000 30.00000000
  endloop
 endfacet
 facet normal 0.00000000e+00 0.00000000e+00 -1.00000000e+00
  outer loop
   vertex 0.00000000 0.00000000 0.00000000
   vertex -14.48888739 -3.88228568 0.00000000
   vertex -14.87167292 -1.95789288 0.00000000
  endloop
 endfacet
 facet normal -8.77616510e-01 -1.74568778e-01 4.46447089e-01
  outer loop
   vertex -14.87167292 -1.95789288 0.00000000
   vertex -14.48888739 -3.88228568 0.00000000
   vertex 0.00000000 0.00000000 30.00000000
  endloop
 endfacet
 facet normal 0.00000000e+00 0.00000000e+00 -1.00000000e+00
  outer loop
   vertex 0.00000000 0.00000000 0.00000000
   vertex -13.85819299 -5.74025149 0.00000000
   vertex -14.48888739 -3.88228568 0.00000000
  endloop
 endfacet
 facet normal -8.47322581e-01 -2.87627259e-01 4.46447089e-01
  outer loop
   vertex -14.48888739 -3.88228568 0.00000000
   vertex -13.85819299 -5.74025149 0.00000000
   vertex 0.00000000 0.00000000 30.00000000
  endloop
 endfacet
 facet normal 0.00000000e+00 0.00000000e+00 -1.00000000e+00
  outer loop
   vertex 0.00000000 0.00000000 0.00000000
   vertex -12.99038106 -7.50000000 0.00000000
   vertex -13.85819299 -5.74025149 0.00000000
  endloop
 endfacet
 facet normal -8.02530728e-01 -3.95764358e-01 4.46447089e-01
  outer loop
   vertex -13.85819299 -5.74025149 0.00000000
   vertex -12.99038106 -7.50000000 0.00000000
   vertex 0.00000000 0.00000000 30.00000000
  endloop
 endfacet
 facet normal 0.00000000e+00 0.00000000e+00 -1.00000000e+00
  outer loop
   vertex 0.00000000 0.00000000 0.00000000
   vertex -11.90030010 -9.13142144 0.00000000
   vertex -12.99038106 -7.50000000 0.00000000
  endloop
 endfacet
 facet normal -7.44007352e-01 -4.97129819e-01 4.46447089e-01
  outer loop
   vertex -12.99038106 -7.50000000 0.00000000
   vertex -11.90030010 -9.13142144 0.00000000
   vertex 0.00000000 0.00000000 30.00000000
  endloop
 endfacet
 facet normal 0.00000000e+00 0.00000000e+00 -1.00000000e+00
  outer loop
   vertex 0.00000000 0.00000000 0.00000000
   vertex -10.60660172 -10.60660172 0.00000000
   vertex -11.90030010 -9.13142144 0.00000000
  endloop
 endfacet
 facet normal -6.72753804e-01 -5.89989251e-01 4.46447089e-01
  outer loop
   vertex -11.90030010 -9.13142144 0.00000000
   vertex -10.60660172 -10.60660172 0.00000000
   vertex 0.00000000 0.00000000 30.00000000
  endloop
 endfacet
 facet normal 0.00000000e+00 0.00000000e+00 -1.00000000e+00
  outer loop
   vertex 0.00000000 0.00000000 0.00000000
   vertex -9.13142144 -11.90030010 0.00000000
   vertex -10.60660172 -10.60660172 0.00000000
  endloop
 endfacet
 facet normal -5.89989251e-01 -6.72753804e-01 4.46447089e-01
  outer loop
   vertex -10.60660172 -10.60660172 0.00000000
   vertex -9.13142144 -11.90030010 0.00000000
   vertex 0.00000000 0.00000000 30.00000000
  endloop
 endfacet
 facet normal 0.00000000e+00 0.00000000e+00 -1.00000000e+00
  outer loop
   vertex 0.00000000 0.00000000 0.00000000
   vertex -7.50000000 -12.99038106 0.00000000
   vertex -9.13142144 -11.90030010 0.00000000
  endloop
 endfacet
 facet normal -4.97129819e-01 -7.44007352e-01 4.46447089e-01
  outer loop
   vertex -9.13142144 -11.90030010 0.00000000
   vertex -7.50000000 -12.99038106 0.00000000
   vertex 0.00000000 0.00000000 30.00000000
  endloop
 endfacet
 facet normal 0.00000000e+00 0.00000000e+00 -1.00000000e+00
  outer loop
   vertex 0.00000000 0.00000000 0.00000000
   vertex -5.74025149 -13.85819299 0.00000000
   vertex -7.50000000 -12.99038106 0.00000000
  endloop
 endfacet
 facet normal -3.95764358e-01 -8.02530728e-01 4.46447089e-01
  outer loop
   vertex -7.50000000 -12.99038106 0.00000000
   vertex -5.74025149 -13.85819299 0.00000000
   vertex 0.00000000 0.00000000 30.00000000
  endloop
 endfacet
 facet normal 0.00000000e+00 0.00000000e+00 -1.00000000e+00
  outer loop
   vertex 0.00000000 0.00000000 0.00000000
   vertex -3.88228568 -14.48888739 0.00000000
   vertex -5.74025149 -13.85819299 0.00000000
  endloop
 endfacet
 facet normal -2.87627259e-01 -8.47322581e-01 4.46447089e-01
  outer loop
   vertex -5.74025149 -13.85819299 0.00000000
   vertex -3.88228568 -14.48888739 0.00000000
   vertex 0.00000000 0.00000000 30.00000000
  endloop
 endfacet
 facet normal 0.00000000e+00 0.00000000e+00 -1.00000000e+00
  outer loop
   vertex 0.00000000 0.00000000 0.00000000
   vertex -1.95789288 -14.87167292 0.00000000
   vertex -3.88228568 -14.48888739 0.00000000
  endloop
 endfacet
 facet normal -1.74568778e-01 -8.77616510e-01 4.46447089e-01
  outer loop
   vertex -3.88228568 -14.48888739 0.00000000
   vertex -1.95789288 -14.87167292 0.00000000
   vertex 0.00000000 0.00000000 30.00000000
  endloop
 endfacet
 facet normal 0.00000000e+00 0.00000000e+00 -1.00000000e+00
  outer loop
   vertex 0.00000000 0.00000000 0.00000000
   vertex -0.00000000 -15.00000000 0.00000000
   vertex -1.95789288 -14.87167292 0.00000000
  endloop
 endfacet
 facet normal -5.85233763e-02 -8.92894177e-01 4.46447089e-01
  outer loop
   vertex -1.95789288 -14.87167292 0.00000000
   vertex -0.00000000 -15.00000000 0.00000000
   vertex 0.00000000 0.00000000 30.00000000
  endloop
 endfacet
 facet normal 0.00000000e+00 -0.00000000e+00 -1.00000000e+00
  outer loop
   vertex 0.00000000 0.00000000 0.00000000
   vertex 1.95789288 -14.87167292 0.00000000
   vertex -0.00000000 -15.00000000 0.00000000
  endloop
 endfacet
 facet normal 5.85233763e-02 -8.92894177e-01 4.46447089e-01
  outer loop
   vertex -0.00000000 -15.00000000 0.00000000
   vertex 1.95789288 -14.87167292 0.00000000
   vertex 0.00000000 0.00000000 30.00000000
  endloop
 endfacet
 facet normal 0.00000000e+00 0.00000000e+00 -1.00000000e+00
  outer loop
   vertex 0.00000000 0.00000000 0.00000000
   vertex 3.88228568 -14.48888739 0.00000000
   vertex 1.95789288 -14.87167292 0.00000000
  endloop
 endfacet
 facet normal 1.74568778e-01 -8.77616510e-01 4.46447089e-01
  outer loop
   vertex 1.95789288 -14.87167292 0.00000000
   vertex 3.88228568 -14.48888739 0.00000000
   vertex 0.00000000 0.00000000 30.00000000
  endloop
 endfacet
 facet normal 0.00000000e+00 0.00000000e+00 -1.00000000e+00
  outer loop
   vertex 0.00000000 0.00000000 0.00000000
   vertex 5.74025149 -13.85819299 0.00000000
   vertex 3.88228568 -14.48888739 0.00000000
  endloop
 endfacet
 facet normal 2.87627259e-01 -8.47322581e-01 4.46447089e-01
  outer loop
   vertex 3.88228568 -14.48888739 0.00000000
   vertex 5.74025149 -13.85819299 0.00000000
   vertex 0.00000000 0.00000000 30.00000000
  endloop
 endfacet
 facet normal 0.00000000e+00 0.00000000e+00 -1.00000000e+00
  outer loop
   vertex 0.00000000 0.00000000 0.00000000
   vertex 7.50000000 -12.99038106 0.00000000
   vertex 5.74025149 -13.85819299 0.00000000
  endloop
 endfacet
 facet normal 3.95764358e-01 -8.02530728e-01 4.46447089e-01
  outer loop
   vertex 5.74025149 -13.85819299 0.00000000
   vertex 7.50000000 -12.99038106 0.00000000
   vertex 0.00000000 0.00000000 30.00000000
  endloop
 endfacet
 facet normal 0.00000000e+00 0.00000000e+00 -1.00000000e+00
  outer loop
   vertex 0.00000000 0.00000000 0.00000000
   vertex 9.13142144 -11.90030010 0.00000000
   vertex 7.50000000 -12.99038106 0.00000000
  endloop
 endfacet
 facet normal 4.97129819e-01 -7.44007352e-01 4.46447089e-01
  outer loop
   vertex 7.50000000 -12.99038106 0.00000000
   vertex 9.13142144 -11.90030010 0.00000000
   vertex 0.00000000 0.00000000 30.00000000
  endloop
 endfacet
 facet normal 0.00000000e+00 0.00000000e+00 -1.00000000e+00
  outer loop
   vertex 0.00000000 0.00000000 0.00000000
   vertex 10.60660172 -10.60660172 0.00000000
   vertex 9.13142144 -11.90030010 0.00000000
  endloop
 endfacet
 facet normal 5.89989251e-01 -6.72753804e-01 4.46447089e-01
  outer loop
   vertex 9.13142144 -11.90030010 0.00000000
   vertex 10.60660172 -10.60660172 0.00000000
   vertex 0.00000000 0.00000000 30.00000000
  endloop
 endfacet
 facet normal 0.00000000e+00 0.00000000e+00 -1.00000000e+00
  outer loop
   vertex 0.00000000 0.00000000 0.00000000
   vertex 11.90030010 -9.13142144 0.00000000
   vertex 10.60660172 -10.60660172 0.00000000
  endloop
 endfacet
 facet normal 6.72753804e-01 -5.89989251e-01 4.46447089e-01
  outer loop
   vertex 10.60660172 -10.60660172 0.00000000
   vertex 11.90030010 -9.13142144 0.00000000
   vertex 0.00000000 0.00000000 30.00000000
  endloop
 endfacet
 facet normal 0.00000000e+00 0.00000000e+00 -1.00000000e+00
  outer loop
   vertex 0.00000000 0.00000000 0.00000000
   vertex 12.99038106 -7.50000000 0.00000000
   vertex 11.90030010 -9.13142144 0.00000000
  endloop
 endfacet
 facet normal 7.44007352e-01 -4.97129819e-01 4.46447089e-01
  outer loop
   vertex 11.90030010 -9.13142144 0.00000000
   vertex 12.99038106 -7.50000000 0.00000000
   vertex 0.00000000 0.00000000 30.00000000
  endloop
 endfacet
 facet normal 0.00000000e+00 0.00000000e+00 -1.00000000e+00
  outer loop
   vertex 0.00000000 0.00000000 0.00000000
   vertex 13.85819299 -5.74025149 0.00000000
   vertex 12.99038106 -7.50000000 0.00000000
  endloop
 endfacet
 facet normal 8.02530728e-01 -3.95764358e-01 4.46447089e-01
  outer loop
   vertex 12.99038106 -7.50000000 0.00000000
   vertex 13.85819299 -5.74025149 0.00000000
   vertex 0.00000000 0.00000000 30.00000000
  endloop
 endfacet
 facet normal 0.00000000e+00 0.00000000e+00 -1.00000000e+00
  outer loop
   vertex 0.00000000 0.00000000 0.00000000
   vertex 14.48888739 -3.88228568 0.00000000
   vertex 13.85819299 -5.74025149 0.00000000
  endloop
 endfacet
 facet normal 8.47322581e-01 -2.87627259e-01 4.46447089e-01
  outer loop
   vertex 13.85819299 -5.74025149 0.00000000
   vertex 14.48888739 -3.88228568 0.00000000
   vertex 0.00000000 0.00000000 30.00000000
  endloop
 endfacet
 facet normal 0.00000000e+00 0.00000000e+00 -1.00000000e+00
  outer loop
   vertex 0.00000000 0.00000000 0.00000000
   vertex 14.87167292 -1.95789288 0.00000000
   vertex 14.48888739 -3.88228568 0.00000000
  endloop
 endfacet
 facet normal 8.77616510e-01 -1.74568778e-01 4.46447089e-01
  outer loop
   vertex 14.48888739 -3.88228568 0.00000000
   vertex 14.87167292 -1.95789288 0.00000000
   vertex 0.00000000 0.00000000 30.00000000
  endloop
 endfacet
 facet normal 0.00000000e+00 0.00000000e+00 -1.00000000e+00
  outer loop
   vertex 0.00000000 0.00000000 0.00000000
   vertex 15.00000000 0.00000000 0.00000000
   vertex 14.87167292 -1.95789288 0.00000000
  endloop
 endfacet
 facet normal 8.92894177e-01 -5.85233763e-02 4.46447089e-01
  outer loop
   vertex 14.87167292 -1.95789288 0.00000000
   vertex 15.00000000 0.00000000 0.00000000
   vertex 0.00000000 0.00000000 30.00000000
  endloop
 endfacet
endsolid 03_cone_30x30mm
