solid 04_rectangular_block_50x30x10mm
 facet normal 0.00000000e+00 0.00000000e+00 1.00000000e+00
  outer loop
   vertex 0.00000000 0.00000000 0.00000000
   vertex 50.00000000 0.00000000 0.00000000
   vertex 50.00000000 30.00000000 0.00000000
  endloop
 endfacet
 facet normal 0.00000000e+00 0.00000000e+00 1.00000000e+00
  outer loop
   vertex 0.00000000 0.00000000 0.00000000
   vertex 50.00000000 30.00000000 0.00000000
   vertex 0.00000000 30.00000000 0.00000000
  endloop
 endfacet
 facet normal 0.00000000e+00 0.00000000e+00 -1.00000000e+00
  outer loop
   vertex 0.00000000 0.00000000 10.00000000
   vertex 50.00000000 30.00000000 10.00000000
   vertex 50.00000000 0.00000000 10.00000000
  endloop
 endfacet
 facet normal 0.00000000e+00 0.00000000e+00 -1.00000000e+00
  outer loop
   vertex 0.00000000 0.00000000 10.00000000
   vertex 0.00000000 30.00000000 10.00000000
   vertex 50.00000000 30.00000000 10.00000000
  endloop
 endfacet
 facet normal 0.00000000e+00 1.00000000e+00 0.00000000e+00
  outer loop
   vertex 0.00000000 0.00000000 0.00000000
   vertex 0.00000000 0.00000000 10.00000000
   vertex 50.00000000 0.00000000 10.00000000
  endloop
 endfacet
 facet normal 0.00000000e+00 1.00000000e+00 0.00000000e+00
  outer loop
   vertex 0.00000000 0.00000000 0.00000000
   vertex 50.00000000 0.00000000 10.00000000
   vertex 50.00000000 0.00000000 0.00000000
  endloop
 endfacet
 facet normal -1.00000000e+00 0.00000000e+00 0.00000000e+00
  outer loop
   vertex 50.00000000 0.00000000 0.00000000
   vertex 50.00000000 0.00000000 10.00000000
   vertex 50.00000000 30.00000000 10.00000000
  endloop
 endfacet
 facet normal -1.00000000e+00 0.00000000e+00 0.00000000e+00
  outer loop
   vertex 50.00000000 0.00000000 0.00000000
   vertex 50.00000000 30.00000000 10.00000000
   vertex 50.00000000 30.00000000 0.00000000
  endloop
 endfacet
 facet normal 0.00000000e+00 -1.00000000e+00 0.00000000e+00
  outer loop
   vertex 50.00000000 30.00000000 0.00000000
   vertex 50.00000000 30.00000000 10.00000000
   vertex 0.00000000 30.00000000 10.00000000
  endloop
 endfacet
 facet normal 0.00000000e+00 -1.00000000e+00 0.00000000e+00
  outer loop
   vertex 50.00000000 30.00000000 0.00000000
   vertex 0.00000000 30.00000000 10.00000000
   vertex 0.00000000 30.00000000 0.00000000
  endloop
 endfacet
 facet normal 1.00000000e+00 0.00000000e+00 0.00000000e+00
  outer loop
   vertex 0.00000000 30.00000000 0.00000000
   vertex 0.00000000 30.00000000 10.00000000
   vertex 0.00000000 0.00000000 10.00000000
  endloop
 endfacet
 facet normal 1.00000000e+00 0.00000000e+00 0.00000000e+00
  outer loop
   vertex 0.00000000 30.00000000 0.00000000
   vertex 0.00000000 0.00000000 10.00000000
   vertex 0.00000000 0.00000000 0.00000000
  endloop
 endfacet
endsolid 04_rectangular_block_50x30x10mm
