ply
format ascii 1.0
comment Novus Examples - 16 vertices, 8 unique positions (exact duplicates)
element vertex 16
property float x
property float y
property float z
element face 12
property list uchar int vertex_indices
end_header
-0.500000 -0.500000 -0.500000
0.500000 -0.500000 -0.500000
0.500000 0.500000 -0.500000
-0.500000 0.500000 -0.500000
-0.500000 -0.500000 0.500000
0.500000 -0.500000 0.500000
0.500000 0.500000 0.500000
-0.500000 0.500000 0.500000
-0.500000 -0.500000 -0.500000
0.500000 -0.500000 -0.500000
0.500000 0.500000 -0.500000
-0.500000 0.500000 -0.500000
-0.500000 -0.500000 0.500000
0.500000 -0.500000 0.500000
0.500000 0.500000 0.500000
-0.500000 0.500000 0.500000
3 0 3 2
3 0 2 1
3 4 5 6
3 4 6 7
3 0 1 5
3 0 5 4
3 9 10 14
3 9 14 13
3 10 11 15
3 10 15 14
3 11 8 12
3 11 12 15
